<?xml version="1.0" encoding="utf-8"?>
<!-- Generator: Adobe Illustrator 25.0.0, SVG Export Plug-In . SVG Version: 6.00 Build 0)  -->
<svg version="1.1" id="Слой_1" xmlns="http://www.w3.org/2000/svg" xmlns:xlink="http://www.w3.org/1999/xlink" x="0px" y="0px"
	 viewBox="0 0 100 100" style="enable-background:new 0 0 100 100;" xml:space="preserve">
<style type="text/css">
	.st0{fill:#473D46;}
	.st1{font-family:'MyriadPro-Regular';}
	.st2{font-size:12px;}
</style>
<text transform="matrix(1 0 0 1 7.0684 11.6592)" class="st0 st1 st2">~</text>
<text transform="matrix(1 0 0 1 75.1834 22.5902)" class="st0 st1 st2">~</text>
<text transform="matrix(1 0 0 1 23.3184 27.8638)" class="st0 st1 st2">@</text>
<text transform="matrix(1 0 0 1 10.3372 89.5901)" class="st0 st1 st2">@</text>
<text transform="matrix(1 0 0 1 50.3372 44.5902)" class="st0 st1 st2">@</text>
<text transform="matrix(1 0 0 1 52.1816 19.2271)" class="st0 st1 st2">#</text>
<text transform="matrix(1 0 0 1 35.7766 73.5902)" class="st0 st1 st2">#</text>
<text transform="matrix(1 0 0 1 12.1834 57.5902)" class="st0 st1 st2">~</text>
<text transform="matrix(1 0 0 1 72.1832 86.5902)" class="st0 st1 st2">~</text>
<text transform="matrix(1 0 0 1 72.7764 52.5905)" class="st0 st1 st2">#</text>
</svg>
